<svg width="22" height="19" viewBox="0 0 22 19" fill="none" xmlns="http://www.w3.org/2000/svg">
<path d="M15.7414 0C13.8363 0 12.1455 0.753332 11 2.04815C9.85448 0.753332 8.16371 0 6.25862 0C4.59935 0.00201119 3.00861 0.663229 1.83532 1.83862C0.662041 3.01401 0.00200759 4.6076 0 6.26985C0 13.142 10.0337 18.6329 10.4604 18.8637C10.6263 18.9532 10.8117 19 11 19C11.1883 19 11.3737 18.9532 11.5396 18.8637C11.9663 18.6329 22 13.142 22 6.26985C21.998 4.6076 21.338 3.01401 20.1647 1.83862C18.9914 0.663229 17.4007 0.00201119 15.7414 0ZM15.2208 13.5239C13.9001 14.6466 12.4883 15.6571 11 16.5448C9.51173 15.6571 8.09992 14.6466 6.77922 13.5239C4.72431 11.7579 2.27586 9.06468 2.27586 6.26985C2.27586 5.21166 2.69547 4.19681 3.44238 3.44856C4.1893 2.70031 5.20233 2.27995 6.25862 2.27995C7.94655 2.27995 9.35948 3.17292 9.94647 4.61119C10.0319 4.82086 10.1777 5.00028 10.3654 5.12658C10.553 5.25288 10.7739 5.32033 11 5.32033C11.2261 5.32033 11.447 5.25288 11.6346 5.12658C11.8223 5.00028 11.9681 4.82086 12.0535 4.61119C12.6405 3.17292 14.0534 2.27995 15.7414 2.27995C16.7977 2.27995 17.8107 2.70031 18.5576 3.44856C19.3045 4.19681 19.7241 5.21166 19.7241 6.26985C19.7241 9.06468 17.2757 11.7579 15.2208 13.5239Z" fill="#ABABAB"/>
</svg>
