<svg width="20" height="20" viewBox="0 0 20 20" fill="none" xmlns="http://www.w3.org/2000/svg">
<rect x="0.5" y="0.5" width="19" height="19" rx="4.5" fill="#92CAFF" stroke="#92CAFF"/>
<path d="M14.8127 10.0455C14.8127 11.196 14.6049 12.1903 14.1895 13.0284C13.774 13.8665 13.204 14.5128 12.4796 14.9673C11.7551 15.4219 10.9277 15.6491 9.99734 15.6491C9.06694 15.6491 8.23952 15.4219 7.51509 14.9673C6.79066 14.5128 6.2207 13.8665 5.80522 13.0284C5.38974 12.1903 5.182 11.196 5.182 10.0455C5.182 8.89489 5.38974 7.90057 5.80522 7.0625C6.2207 6.22443 6.79066 5.57812 7.51509 5.12358C8.23952 4.66903 9.06694 4.44176 9.99734 4.44176C10.9277 4.44176 11.7551 4.66903 12.4796 5.12358C13.204 5.57812 13.774 6.22443 14.1895 7.0625C14.6049 7.90057 14.8127 8.89489 14.8127 10.0455ZM13.5343 10.0455C13.5343 9.10085 13.3762 8.30362 13.0602 7.65376C12.7477 7.00391 12.3233 6.51207 11.7871 6.17827C11.2544 5.84446 10.6578 5.67756 9.99734 5.67756C9.33683 5.67756 8.73846 5.84446 8.20224 6.17827C7.66957 6.51207 7.24521 7.00391 6.92915 7.65376C6.61665 8.30362 6.4604 9.10085 6.4604 10.0455C6.4604 10.9901 6.61665 11.7873 6.92915 12.4371C7.24521 13.087 7.66957 13.5788 8.20224 13.9126C8.73846 14.2464 9.33683 14.4134 9.99734 14.4134C10.6578 14.4134 11.2544 14.2464 11.7871 13.9126C12.3233 13.5788 12.7477 13.087 13.0602 12.4371C13.3762 11.7873 13.5343 10.9901 13.5343 10.0455Z" fill="white"/>
</svg>
