<svg width="22" height="22" viewBox="0 0 22 22" fill="none" xmlns="http://www.w3.org/2000/svg">
<g clip-path="url(#clip0_2130_689)">
<path d="M16.0417 1.75732C15.0095 1.77338 13.9998 2.06152 13.1146 2.59266C12.2294 3.12379 11.5 3.8791 11 4.78232C10.5001 3.8791 9.77073 3.12379 8.88551 2.59266C8.00029 2.06152 6.99059 1.77338 5.95838 1.75732C4.31291 1.82882 2.76261 2.54864 1.64618 3.75954C0.529748 4.97043 -0.0620615 6.57397 4.31468e-05 8.21982C4.31468e-05 12.3879 4.38721 16.9401 8.06671 20.0265C8.88824 20.7169 9.92695 21.0953 11 21.0953C12.0731 21.0953 13.1118 20.7169 13.9334 20.0265C17.6129 16.9401 22 12.3879 22 8.21982C22.0621 6.57397 21.4703 4.97043 20.3539 3.75954C19.2375 2.54864 17.6872 1.82882 16.0417 1.75732ZM12.7555 18.624C12.2641 19.0378 11.6424 19.2647 11 19.2647C10.3577 19.2647 9.73598 19.0378 9.24463 18.624C4.53479 14.6722 1.83338 10.8809 1.83338 8.21982C1.77071 7.05998 2.16921 5.92241 2.94196 5.05522C3.71471 4.18802 4.79901 3.66156 5.95838 3.59066C7.11775 3.66156 8.20205 4.18802 8.97479 5.05522C9.74754 5.92241 10.146 7.05998 10.0834 8.21982C10.0834 8.46294 10.18 8.6961 10.3519 8.86801C10.5238 9.03991 10.7569 9.13649 11 9.13649C11.2432 9.13649 11.4763 9.03991 11.6482 8.86801C11.8201 8.6961 11.9167 8.46294 11.9167 8.21982C11.854 7.05998 12.2525 5.92241 13.0253 5.05522C13.798 4.18802 14.8823 3.66156 16.0417 3.59066C17.2011 3.66156 18.2854 4.18802 19.0581 5.05522C19.8309 5.92241 20.2294 7.05998 20.1667 8.21982C20.1667 10.8809 17.4653 14.6722 12.7555 18.6203V18.624Z" fill="#6A6FB3"/>
</g>
<defs>
<clipPath id="clip0_2130_689">
<rect width="22" height="22" fill="white"/>
</clipPath>
</defs>
</svg>
