<svg width="83" height="25" viewBox="0 0 83 25" fill="none" xmlns="http://www.w3.org/2000/svg">
<rect width="83" height="25" rx="12.5" fill="#6A6FB3"/>
<g clip-path="url(#clip0_2130_781)">
<path d="M68.5833 12.4167H59.4167C59.1865 12.4167 59 12.6779 59 13.0001C59 13.3222 59.1865 13.5834 59.4167 13.5834H68.5833C68.8135 13.5834 69 13.3222 69 13.0001C69 12.6779 68.8135 12.4167 68.5833 12.4167Z" fill="white"/>
<path d="M68.5833 8.33325H59.4167C59.1865 8.33325 59 8.59442 59 8.91659C59 9.23875 59.1865 9.49992 59.4167 9.49992H68.5833C68.8135 9.49992 69 9.23875 69 8.91659C69 8.59442 68.8135 8.33325 68.5833 8.33325Z" fill="white"/>
<path d="M68.5833 16.5H59.4167C59.1865 16.5 59 16.7612 59 17.0833C59 17.4055 59.1865 17.6667 59.4167 17.6667H68.5833C68.8135 17.6667 69 17.4055 69 17.0833C69 16.7612 68.8135 16.5 68.5833 16.5Z" fill="white"/>
</g>
<path d="M13.848 7.532H21.144V11.228H13.848V7.532ZM20.16 8.336H14.82V10.424H20.16V8.336ZM12.588 12.584H22.392V13.388H12.588V12.584ZM17.004 11.012H17.988V12.884H17.004V11.012ZM13.68 14.504H21.18V17.936H20.184V15.32H13.68V14.504ZM23.6271 13.052H33.4671V13.868H23.6271V13.052ZM24.8751 7.364H32.1951V9.992H25.8831V11.456H24.8991V9.26H31.2231V8.144H24.8751V7.364ZM24.8991 11.132H32.4351V11.912H24.8991V11.132ZM28.0431 11.54H29.0391V13.46H28.0431V11.54ZM24.7191 14.696H32.2671V17.84H31.2711V15.512H24.7191V14.696ZM34.6781 15.728H44.5061V16.556H34.6781V15.728ZM39.0701 13.136H40.0661V15.968H39.0701V13.136ZM35.8301 7.856H36.8141V9.788H42.3461V7.856H43.3301V13.4H35.8301V7.856ZM36.8141 10.592V12.584H42.3461V10.592H36.8141ZM53.6132 7.088H54.6092V17.936H53.6132V7.088ZM50.4332 8.252H51.4172C51.4172 11.396 50.0012 14.144 46.3772 15.92L45.8492 15.116C48.9812 13.604 50.4332 11.3 50.4332 8.42V8.252ZM46.3412 8.252H50.8652V9.068H46.3412V8.252Z" fill="white"/>
<defs>
<clipPath id="clip0_2130_781">
<rect width="10" height="14" fill="white" transform="translate(59 6)"/>
</clipPath>
</defs>
</svg>
